<?xml version="1.0" encoding="UTF-8"?>
<svg xmlns="http://www.w3.org/2000/svg" xmlns:xlink="http://www.w3.org/1999/xlink"
     width="310mm" height="50mm" viewBox="0 -50 310 50">
<defs>
</defs>
<rect x="5.0" y="-45.0" width="300" height="40" stroke="black" fill="none" stroke-width="0.1" />
<path d="M5.900492113804717,-8.0 L6.599507886195283,-42.0" stroke="black" stroke-width="0.1" />
<path d="M7.561656318467882,-26.5 L8.322084246238433,-45.0" stroke="red" stroke-width="0.1" />
<path d="M7.438343681532118,-23.5 L6.677915753761567,-5.0" stroke="red" stroke-width="0.1" />
<path d="M7.702455715473465,-8.0 L9.797544284526534,-42.0" stroke="black" stroke-width="0.1" />
<path d="M10.123138847041275,-26.5 L11.641851293883681,-45.0" stroke="red" stroke-width="0.1" />
<path d="M9.876861152958725,-23.5 L8.358148706116319,-5.0" stroke="red" stroke-width="0.1" />
<path d="M9.5074008569204,-8.0 L12.9925991430796,-42.0" stroke="black" stroke-width="0.1" />
<path d="M12.684266157084311,-26.5 L14.956882094457482,-45.0" stroke="red" stroke-width="0.1" />
<path d="M12.315733842915689,-23.5 L10.043117905542518,-5.0" stroke="red" stroke-width="0.1" />
<path d="M11.317458896607828,-8.0 L16.182541103392172,-42.0" stroke="black" stroke-width="0.1" />
<path d="M15.244841732656349,-26.5 L18.26455643541799,-45.0" stroke="red" stroke-width="0.1" />
<path d="M14.755158267343651,-23.5 L11.73544356458201,-5.0" stroke="red" stroke-width="0.1" />
<path d="M13.13497284066802,-8.0 L19.36502715933198,-42.0" stroke="black" stroke-width="0.1" />
<path d="M17.8046469266978,-26.5 L21.56195902263732,-45.0" stroke="red" stroke-width="0.1" />
<path d="M17.1953530733022,-23.5 L13.438040977362679,-5.0" stroke="red" stroke-width="0.1" />
<path d="M14.962573811993348,-8.0 L22.53742618800665,-42.0" stroke="black" stroke-width="0.1" />
<path d="M20.36343458268435,-26.5 L24.845794435791305,-45.0" stroke="red" stroke-width="0.1" />
<path d="M19.63656541731565,-23.5 L15.154205564208693,-5.0" stroke="red" stroke-width="0.1" />
<path d="M16.803248243186154,-8.0 L25.696751756813846,-42.0" stroke="black" stroke-width="0.1" />
<path d="M22.9209236447284,-26.5 L28.112315263045343,-45.0" stroke="red" stroke-width="0.1" />
<path d="M22.0790763552716,-23.5 L16.887684736954657,-5.0" stroke="red" stroke-width="0.1" />
<path d="M18.660391742624256,-8.0 L28.839608257375744,-42.0" stroke="black" stroke-width="0.1" />
<path d="M25.476795148230423,-26.5 L31.35726864307228,-45.0" stroke="red" stroke-width="0.1" />
<path d="M24.523204851769577,-23.5 L18.64273135692772,-5.0" stroke="red" stroke-width="0.1" />
<path d="M20.5378448144872,-8.0 L31.9621551855128,-42.0" stroke="black" stroke-width="0.1" />
<path d="M28.030690045764494,-26.5 L34.57586727685994,-45.0" stroke="red" stroke-width="0.1" />
<path d="M26.969309954235506,-23.5 L20.424132723140062,-5.0" stroke="red" stroke-width="0.1" />
<path d="M22.439905013652307,-8.0 L35.06009498634769,-42.0" stroke="black" stroke-width="0.1" />
<path d="M30.58220936126746,-26.5 L37.76279148356612,-45.0" stroke="red" stroke-width="0.1" />
<path d="M29.41779063873254,-23.5 L22.23720851643388,-5.0" stroke="red" stroke-width="0.1" />
<path d="M24.371309906135526,-8.0 L38.12869009386448,-42.0" stroke="black" stroke-width="0.1" />
<path d="M33.13091715880215,-26.5 L40.91222878402875,-45.0" stroke="red" stroke-width="0.1" />
<path d="M31.86908284119784,-23.5 L24.087771215971244,-5.0" stroke="red" stroke-width="0.1" />
<path d="M26.33718563280568,-8.0 L41.16281436719433,-42.0" stroke="black" stroke-width="0.1" />
<path d="M35.67634673832022,-26.5 L44.017956510936266,-45.0" stroke="red" stroke-width="0.1" />
<path d="M34.32365326167978,-23.5 L25.982043489063734,-5.0" stroke="red" stroke-width="0.1" />
<path d="M28.34295717411071,-8.0 L44.15704282588929,-42.0" stroke="black" stroke-width="0.1" />
<path d="M38.218010311551936,-26.5 L47.07347082069251,-45.0" stroke="red" stroke-width="0.1" />
<path d="M36.781989688448064,-23.5 L27.926529179307487,-5.0" stroke="red" stroke-width="0.1" />
<path d="M30.394218750814012,-8.0 L47.10578124918599,-42.0" stroke="black" stroke-width="0.1" />
<path d="M40.75541215747632,-26.5 L50.07216209968428,-45.0" stroke="red" stroke-width="0.1" />
<path d="M39.24458784252368,-23.5 L29.927837900315723,-5.0" stroke="red" stroke-width="0.1" />
<path d="M32.49656618883839,-8.0 L50.00343381116161,-42.0" stroke="black" stroke-width="0.1" />
<path d="M43.2880649160525,-26.5 L53.007532214033276,-45.0" stroke="red" stroke-width="0.1" />
<path d="M41.7119350839475,-23.5 L31.992467785966724,-5.0" stroke="red" stroke-width="0.1" />
<path d="M34.6553973257061,-8.0 L52.8446026742939,-42.0" stroke="black" stroke-width="0.1" />
<path d="M45.81550827996936,-26.5 L55.87344373292476,-45.0" stroke="red" stroke-width="0.1" />
<path d="M44.18449172003064,-23.5 L34.12655626707524,-5.0" stroke="red" stroke-width="0.1" />
<path d="M36.87569118029638,-8.0 L55.62430881970362,-42.0" stroke="black" stroke-width="0.1" />
<path d="M48.33732893926898,-26.5 L58.66438585691974,-45.0" stroke="red" stroke-width="0.1" />
<path d="M46.66267106073102,-23.5 L36.33561414308026,-5.0" stroke="red" stroke-width="0.1" />
<path d="M39.16178093903907,-8.0 L58.33821906096093,-42.0" stroke="black" stroke-width="0.1" />
<path d="M50.853180293378074,-26.5 L61.375737245040995,-45.0" stroke="red" stroke-width="0.1" />
<path d="M49.146819706621926,-23.5 L38.624262754959005,-5.0" stroke="red" stroke-width="0.1" />
<path d="M41.517138973912026,-8.0 L60.982861026087974,-42.0" stroke="black" stroke-width="0.1" />
<path d="M53.362800245909185,-26.5 L64.00400327878916,-45.0" stroke="red" stroke-width="0.1" />
<path d="M51.637199754090815,-23.5 L40.99599672121085,-5.0" stroke="red" stroke-width="0.1" />
<path d="M43.944193274343306,-8.0 L63.555806725656694,-42.0" stroke="black" stroke-width="0.1" />
<path d="M55.86602540378444,-26.5 L66.54700538379251,-45.0" stroke="red" stroke-width="0.1" />
<path d="M54.13397459621556,-23.5 L43.452994616207484,-5.0" stroke="red" stroke-width="0.1" />
<path d="M46.444193274343306,-8.0 L66.0558067256567,-42.0" stroke="black" stroke-width="0.1" />
<path d="M58.362800245909185,-26.5 L69.00400327878914,-45.0" stroke="red" stroke-width="0.1" />
<path d="M56.637199754090815,-23.5 L45.99599672121085,-5.0" stroke="red" stroke-width="0.1" />
<path d="M49.017138973912026,-8.0 L68.48286102608797,-42.0" stroke="black" stroke-width="0.1" />
<path d="M60.85318029337807,-26.5 L71.37573724504098,-45.0" stroke="red" stroke-width="0.1" />
<path d="M59.14681970662192,-23.5 L48.624262754959005,-5.0" stroke="red" stroke-width="0.1" />
<path d="M51.661780939039076,-8.0 L70.83821906096094,-42.0" stroke="black" stroke-width="0.1" />
<path d="M63.337328939268986,-26.5 L73.66438585691975,-45.0" stroke="red" stroke-width="0.1" />
<path d="M61.66267106073103,-23.5 L51.335614143080264,-5.0" stroke="red" stroke-width="0.1" />
<path d="M54.37569118029638,-8.0 L73.12430881970363,-42.0" stroke="black" stroke-width="0.1" />
<path d="M65.81550827996935,-26.5 L75.87344373292477,-45.0" stroke="red" stroke-width="0.1" />
<path d="M64.18449172003065,-23.5 L54.12655626707523,-5.0" stroke="red" stroke-width="0.1" />
<path d="M57.1553973257061,-8.0 L75.3446026742939,-42.0" stroke="black" stroke-width="0.1" />
<path d="M68.28806491605249,-26.5 L78.00753221403328,-45.0" stroke="red" stroke-width="0.1" />
<path d="M66.71193508394751,-23.5 L56.992467785966724,-5.0" stroke="red" stroke-width="0.1" />
<path d="M59.99656618883839,-8.0 L77.50343381116161,-42.0" stroke="black" stroke-width="0.1" />
<path d="M70.75541215747631,-26.5 L80.07216209968428,-45.0" stroke="red" stroke-width="0.1" />
<path d="M69.24458784252369,-23.5 L59.92783790031572,-5.0" stroke="red" stroke-width="0.1" />
<path d="M62.89421875081403,-8.0 L79.60578124918601,-42.0" stroke="black" stroke-width="0.1" />
<path d="M73.21801031155195,-26.5 L82.07347082069252,-45.0" stroke="red" stroke-width="0.1" />
<path d="M71.78198968844808,-23.5 L62.92652917930751,-5.0" stroke="red" stroke-width="0.1" />
<path d="M65.84295717411071,-8.0 L81.65704282588929,-42.0" stroke="black" stroke-width="0.1" />
<path d="M75.67634673832022,-26.5 L84.01795651093627,-45.0" stroke="red" stroke-width="0.1" />
<path d="M74.32365326167978,-23.5 L65.98204348906373,-5.0" stroke="red" stroke-width="0.1" />
<path d="M68.83718563280567,-8.0 L83.66281436719433,-42.0" stroke="black" stroke-width="0.1" />
<path d="M78.13091715880218,-26.5 L85.91222878402877,-45.0" stroke="red" stroke-width="0.1" />
<path d="M76.86908284119785,-23.5 L69.08777121597126,-5.0" stroke="red" stroke-width="0.1" />
<path d="M71.87130990613551,-8.0 L85.62869009386446,-42.0" stroke="black" stroke-width="0.1" />
<path d="M80.58220936126746,-26.5 L87.76279148356612,-45.0" stroke="red" stroke-width="0.1" />
<path d="M79.41779063873254,-23.5 L72.23720851643388,-5.0" stroke="red" stroke-width="0.1" />
<path d="M74.93990501365232,-8.0 L87.5600949863477,-42.0" stroke="black" stroke-width="0.1" />
<path d="M83.03069004576452,-26.5 L89.57586727685995,-45.0" stroke="red" stroke-width="0.1" />
<path d="M81.96930995423551,-23.5 L75.42413272314008,-5.0" stroke="red" stroke-width="0.1" />
<path d="M78.0378448144872,-8.0 L89.4621551855128,-42.0" stroke="black" stroke-width="0.1" />
<path d="M85.47679514823042,-26.5 L91.35726864307229,-45.0" stroke="red" stroke-width="0.1" />
<path d="M84.52320485176958,-23.5 L78.64273135692771,-5.0" stroke="red" stroke-width="0.1" />
<path d="M81.16039174262426,-8.0 L91.33960825737574,-42.0" stroke="black" stroke-width="0.1" />
<path d="M87.92092364472842,-26.5 L93.11231526304536,-45.0" stroke="red" stroke-width="0.1" />
<path d="M87.07907635527161,-23.5 L81.88768473695467,-5.0" stroke="red" stroke-width="0.1" />
<path d="M84.30324824318613,-8.0 L93.19675175681384,-42.0" stroke="black" stroke-width="0.1" />
<path d="M90.36343458268435,-26.5 L94.8457944357913,-45.0" stroke="red" stroke-width="0.1" />
<path d="M89.63656541731565,-23.5 L85.1542055642087,-5.0" stroke="red" stroke-width="0.1" />
<path d="M87.46257381199337,-8.0 L95.03742618800666,-42.0" stroke="black" stroke-width="0.1" />
<path d="M92.80464692669781,-26.5 L96.56195902263732,-45.0" stroke="red" stroke-width="0.1" />
<path d="M92.19535307330221,-23.5 L88.4380409773627,-5.0" stroke="red" stroke-width="0.1" />
<path d="M90.63497284066801,-8.0 L96.86502715933199,-42.0" stroke="black" stroke-width="0.1" />
<path d="M95.24484173265635,-26.5 L98.26455643541799,-45.0" stroke="red" stroke-width="0.1" />
<path d="M94.75515826734365,-23.5 L91.73544356458201,-5.0" stroke="red" stroke-width="0.1" />
<path d="M93.81745889660783,-8.0 L98.68254110339217,-42.0" stroke="black" stroke-width="0.1" />
<path d="M97.68426615708432,-26.5 L99.9568820944575,-45.0" stroke="red" stroke-width="0.1" />
<path d="M97.3157338429157,-23.5 L95.04311790554253,-5.0" stroke="red" stroke-width="0.1" />
<path d="M97.00740085692038,-8.0 L100.49259914307959,-42.0" stroke="black" stroke-width="0.1" />
<path d="M100.12313884704128,-26.5 L101.64185129388368,-45.0" stroke="red" stroke-width="0.1" />
<path d="M99.87686115295872,-23.5 L98.35814870611632,-5.0" stroke="red" stroke-width="0.1" />
<path d="M100.20245571547346,-8.0 L102.29754428452654,-42.0" stroke="black" stroke-width="0.1" />
<path d="M102.5616563184679,-26.5 L103.32208424623845,-45.0" stroke="red" stroke-width="0.1" />
<path d="M102.43834368153213,-23.5 L101.67791575376158,-5.0" stroke="red" stroke-width="0.1" />
<path d="M103.4004921138047,-8.0 L104.09950788619527,-42.0" stroke="black" stroke-width="0.1" />
<path d="M105.0,-26.5 L105.0,-45.0" stroke="red" stroke-width="0.1" />
<path d="M105.0,-23.5 L105.0,-5.0" stroke="red" stroke-width="0.1" />
<path d="M106.5995078861953,-8.0 L105.90049211380473,-42.0" stroke="black" stroke-width="0.1" />
<path d="M107.43834368153213,-26.5 L106.67791575376158,-45.0" stroke="red" stroke-width="0.1" />
<path d="M107.5616563184679,-23.5 L108.32208424623845,-5.0" stroke="red" stroke-width="0.1" />
<path d="M109.79754428452654,-8.0 L107.70245571547346,-42.0" stroke="black" stroke-width="0.1" />
<path d="M109.87686115295872,-26.5 L108.35814870611632,-45.0" stroke="red" stroke-width="0.1" />
<path d="M110.12313884704128,-23.5 L111.64185129388368,-5.0" stroke="red" stroke-width="0.1" />
<path d="M112.9925991430796,-8.0 L109.5074008569204,-42.0" stroke="black" stroke-width="0.1" />
<path d="M112.3157338429157,-26.5 L110.04311790554253,-45.0" stroke="red" stroke-width="0.1" />
<path d="M112.68426615708432,-23.5 L114.9568820944575,-5.0" stroke="red" stroke-width="0.1" />
<path d="M116.18254110339217,-8.0 L111.31745889660783,-42.0" stroke="black" stroke-width="0.1" />
<path d="M114.75515826734363,-26.5 L111.735443564582,-45.0" stroke="red" stroke-width="0.1" />
<path d="M115.24484173265634,-23.5 L118.26455643541797,-5.0" stroke="red" stroke-width="0.1" />
<path d="M119.36502715933199,-8.0 L113.13497284066801,-42.0" stroke="black" stroke-width="0.1" />
<path d="M117.19535307330221,-26.5 L113.43804097736269,-45.0" stroke="red" stroke-width="0.1" />
<path d="M117.80464692669781,-23.5 L121.56195902263734,-5.0" stroke="red" stroke-width="0.1" />
<path d="M122.53742618800665,-8.0 L114.96257381199335,-42.0" stroke="black" stroke-width="0.1" />
<path d="M119.63656541731567,-26.5 L115.15420556420871,-45.0" stroke="red" stroke-width="0.1" />
<path d="M120.36343458268436,-23.5 L124.84579443579132,-5.0" stroke="red" stroke-width="0.1" />
<path d="M125.69675175681385,-8.0 L116.80324824318618,-42.0" stroke="black" stroke-width="0.1" />
<path d="M122.0790763552716,-26.5 L116.88768473695465,-45.0" stroke="red" stroke-width="0.1" />
<path d="M122.9209236447284,-23.5 L128.11231526304533,-5.0" stroke="red" stroke-width="0.1" />
<path d="M128.83960825737574,-8.0 L118.66039174262424,-42.0" stroke="black" stroke-width="0.1" />
<path d="M124.52320485176958,-26.5 L118.64273135692773,-45.0" stroke="red" stroke-width="0.1" />
<path d="M125.47679514823042,-23.5 L131.35726864307227,-5.0" stroke="red" stroke-width="0.1" />
<path d="M131.9621551855128,-8.0 L120.53784481448722,-42.0" stroke="black" stroke-width="0.1" />
<path d="M126.96930995423553,-26.5 L120.42413272314009,-45.0" stroke="red" stroke-width="0.1" />
<path d="M128.03069004576452,-23.5 L134.57586727685998,-5.0" stroke="red" stroke-width="0.1" />
<path d="M135.06009498634768,-8.0 L122.4399050136523,-42.0" stroke="black" stroke-width="0.1" />
<path d="M129.41779063873253,-26.5 L122.23720851643388,-45.0" stroke="red" stroke-width="0.1" />
<path d="M130.58220936126747,-23.5 L137.7627914835661,-5.0" stroke="red" stroke-width="0.1" />
<path d="M138.1286900938645,-8.0 L124.37130990613554,-42.0" stroke="black" stroke-width="0.1" />
<path d="M131.86908284119784,-26.5 L124.08777121597126,-45.0" stroke="red" stroke-width="0.1" />
<path d="M133.13091715880216,-23.5 L140.91222878402877,-5.0" stroke="red" stroke-width="0.1" />
<path d="M141.1628143671943,-8.0 L126.33718563280566,-42.0" stroke="black" stroke-width="0.1" />
<path d="M134.32365326167977,-26.5 L125.98204348906373,-45.0" stroke="red" stroke-width="0.1" />
<path d="M135.67634673832023,-23.5 L144.01795651093627,-5.0" stroke="red" stroke-width="0.1" />
<path d="M144.15704282588928,-8.0 L128.34295717411072,-42.0" stroke="black" stroke-width="0.1" />
<path d="M136.78198968844808,-26.5 L127.92652917930751,-45.0" stroke="red" stroke-width="0.1" />
<path d="M138.21801031155198,-23.5 L147.07347082069253,-5.0" stroke="red" stroke-width="0.1" />
<path d="M147.105781249186,-8.0 L130.39421875081405,-42.0" stroke="black" stroke-width="0.1" />
<path d="M139.24458784252369,-26.5 L129.92783790031572,-45.0" stroke="red" stroke-width="0.1" />
<path d="M140.75541215747631,-23.5 L150.07216209968428,-5.0" stroke="red" stroke-width="0.1" />
<path d="M150.0034338111616,-8.0 L132.4965661888384,-42.0" stroke="black" stroke-width="0.1" />
<path d="M141.7119350839475,-26.5 L131.9924677859667,-45.0" stroke="red" stroke-width="0.1" />
<path d="M143.2880649160525,-23.5 L153.0075322140333,-5.0" stroke="red" stroke-width="0.1" />
<path d="M152.8446026742939,-8.0 L134.6553973257061,-42.0" stroke="black" stroke-width="0.1" />
<path d="M144.18449172003065,-26.5 L134.12655626707524,-45.0" stroke="red" stroke-width="0.1" />
<path d="M145.81550827996935,-23.5 L155.87344373292476,-5.0" stroke="red" stroke-width="0.1" />
<path d="M155.62430881970366,-8.0 L136.8756911802964,-42.0" stroke="black" stroke-width="0.1" />
<path d="M146.66267106073101,-26.5 L136.33561414308025,-45.0" stroke="red" stroke-width="0.1" />
<path d="M148.33732893926899,-23.5 L158.66438585691975,-5.0" stroke="red" stroke-width="0.1" />
<path d="M158.33821906096097,-8.0 L139.1617809390391,-42.0" stroke="black" stroke-width="0.1" />
<path d="M149.14681970662193,-26.5 L138.624262754959,-45.0" stroke="red" stroke-width="0.1" />
<path d="M150.85318029337807,-23.5 L161.375737245041,-5.0" stroke="red" stroke-width="0.1" />
<path d="M160.98286102608796,-8.0 L141.51713897391204,-42.0" stroke="black" stroke-width="0.1" />
<path d="M151.63719975409083,-26.5 L140.99599672121087,-45.0" stroke="red" stroke-width="0.1" />
<path d="M153.36280024590923,-23.5 L164.00400327878918,-5.0" stroke="red" stroke-width="0.1" />
<path d="M163.5558067256567,-8.0 L143.9441932743433,-42.0" stroke="black" stroke-width="0.1" />
<path d="M154.13397459621555,-26.5 L143.4529946162075,-45.0" stroke="red" stroke-width="0.1" />
<path d="M155.86602540378445,-23.5 L166.5470053837925,-5.0" stroke="red" stroke-width="0.1" />
<path d="M166.0558067256567,-8.0 L146.4441932743433,-42.0" stroke="black" stroke-width="0.1" />
<path d="M156.63719975409083,-26.5 L145.99599672121087,-45.0" stroke="red" stroke-width="0.1" />
<path d="M158.36280024590923,-23.5 L169.00400327878918,-5.0" stroke="red" stroke-width="0.1" />
<path d="M168.48286102608802,-8.0 L149.01713897391204,-42.0" stroke="black" stroke-width="0.1" />
<path d="M159.14681970662193,-26.5 L148.624262754959,-45.0" stroke="red" stroke-width="0.1" />
<path d="M160.85318029337807,-23.5 L171.375737245041,-5.0" stroke="red" stroke-width="0.1" />
<path d="M170.83821906096094,-8.0 L151.66178093903906,-42.0" stroke="black" stroke-width="0.1" />
<path d="M161.66267106073104,-26.5 L151.33561414308028,-45.0" stroke="red" stroke-width="0.1" />
<path d="M163.337328939269,-23.5 L173.66438585691978,-5.0" stroke="red" stroke-width="0.1" />
<path d="M173.12430881970363,-8.0 L154.37569118029637,-42.0" stroke="black" stroke-width="0.1" />
<path d="M164.18449172003065,-26.5 L154.12655626707524,-45.0" stroke="red" stroke-width="0.1" />
<path d="M165.81550827996935,-23.5 L175.87344373292476,-5.0" stroke="red" stroke-width="0.1" />
<path d="M175.3446026742939,-8.0 L157.1553973257061,-42.0" stroke="black" stroke-width="0.1" />
<path d="M166.7119350839475,-26.5 L156.9924677859667,-45.0" stroke="red" stroke-width="0.1" />
<path d="M168.2880649160525,-23.5 L178.0075322140333,-5.0" stroke="red" stroke-width="0.1" />
<path d="M177.50343381116164,-8.0 L159.99656618883841,-42.0" stroke="black" stroke-width="0.1" />
<path d="M169.24458784252369,-26.5 L159.92783790031572,-45.0" stroke="red" stroke-width="0.1" />
<path d="M170.75541215747631,-23.5 L180.07216209968428,-5.0" stroke="red" stroke-width="0.1" />
<path d="M179.605781249186,-8.0 L162.89421875081405,-42.0" stroke="black" stroke-width="0.1" />
<path d="M171.78198968844805,-26.5 L162.9265291793075,-45.0" stroke="red" stroke-width="0.1" />
<path d="M173.21801031155195,-23.5 L182.0734708206925,-5.0" stroke="red" stroke-width="0.1" />
<path d="M181.6570428258893,-8.0 L165.8429571741107,-42.0" stroke="black" stroke-width="0.1" />
<path d="M174.32365326167977,-26.5 L165.98204348906373,-45.0" stroke="red" stroke-width="0.1" />
<path d="M175.67634673832023,-23.5 L184.01795651093627,-5.0" stroke="red" stroke-width="0.1" />
<path d="M183.66281436719433,-8.0 L168.83718563280567,-42.0" stroke="black" stroke-width="0.1" />
<path d="M176.86908284119787,-26.5 L169.0877712159713,-45.0" stroke="red" stroke-width="0.1" />
<path d="M178.1309171588022,-23.5 L185.91222878402877,-5.0" stroke="red" stroke-width="0.1" />
<path d="M185.62869009386446,-8.0 L171.87130990613554,-42.0" stroke="black" stroke-width="0.1" />
<path d="M179.41779063873255,-26.5 L172.23720851643387,-45.0" stroke="red" stroke-width="0.1" />
<path d="M180.58220936126745,-23.5 L187.76279148356613,-5.0" stroke="red" stroke-width="0.1" />
<path d="M187.56009498634768,-8.0 L174.93990501365232,-42.0" stroke="black" stroke-width="0.1" />
<path d="M181.96930995423554,-26.5 L175.4241327231401,-45.0" stroke="red" stroke-width="0.1" />
<path d="M183.03069004576452,-23.5 L189.57586727685995,-5.0" stroke="red" stroke-width="0.1" />
<path d="M189.46215518551278,-8.0 L178.03784481448716,-42.0" stroke="black" stroke-width="0.1" />
<path d="M184.52320485176958,-26.5 L178.64273135692773,-45.0" stroke="red" stroke-width="0.1" />
<path d="M185.47679514823042,-23.5 L191.35726864307227,-5.0" stroke="red" stroke-width="0.1" />
<path d="M191.33960825737574,-8.0 L181.16039174262426,-42.0" stroke="black" stroke-width="0.1" />
<path d="M187.0790763552716,-26.5 L181.88768473695467,-45.0" stroke="red" stroke-width="0.1" />
<path d="M187.9209236447284,-23.5 L193.11231526304533,-5.0" stroke="red" stroke-width="0.1" />
<path d="M193.19675175681388,-8.0 L184.30324824318618,-42.0" stroke="black" stroke-width="0.1" />
<path d="M189.63656541731567,-26.5 L185.1542055642087,-45.0" stroke="red" stroke-width="0.1" />
<path d="M190.36343458268433,-23.5 L194.8457944357913,-5.0" stroke="red" stroke-width="0.1" />
<path d="M195.03742618800666,-8.0 L187.46257381199334,-42.0" stroke="black" stroke-width="0.1" />
<path d="M192.19535307330221,-26.5 L188.43804097736268,-45.0" stroke="red" stroke-width="0.1" />
<path d="M192.80464692669779,-23.5 L196.56195902263732,-5.0" stroke="red" stroke-width="0.1" />
<path d="M196.865027159332,-8.0 L190.634972840668,-42.0" stroke="black" stroke-width="0.1" />
<path d="M194.75515826734366,-26.5 L191.735443564582,-45.0" stroke="red" stroke-width="0.1" />
<path d="M195.24484173265634,-23.5 L198.264556435418,-5.0" stroke="red" stroke-width="0.1" />
<path d="M198.6825411033922,-8.0 L193.81745889660786,-42.0" stroke="black" stroke-width="0.1" />
<path d="M197.31573384291568,-26.5 L195.04311790554252,-45.0" stroke="red" stroke-width="0.1" />
<path d="M197.68426615708432,-23.5 L199.95688209445748,-5.0" stroke="red" stroke-width="0.1" />
<path d="M200.49259914307962,-8.0 L197.00740085692044,-42.0" stroke="black" stroke-width="0.1" />
<path d="M199.87686115295872,-26.5 L198.3581487061163,-45.0" stroke="red" stroke-width="0.1" />
<path d="M200.12313884704128,-23.5 L201.6418512938837,-5.0" stroke="red" stroke-width="0.1" />
<path d="M202.29754428452654,-8.0 L200.20245571547346,-42.0" stroke="black" stroke-width="0.1" />
<path d="M202.43834368153216,-26.5 L201.6779157537616,-45.0" stroke="red" stroke-width="0.1" />
<path d="M202.5616563184679,-23.5 L203.32208424623846,-5.0" stroke="red" stroke-width="0.1" />
<path d="M204.09950788619528,-8.0 L203.40049211380472,-42.0" stroke="black" stroke-width="0.1" />
<path d="M205.0,-26.5 L205.0,-45.0" stroke="red" stroke-width="0.1" />
<path d="M205.0,-23.5 L205.0,-5.0" stroke="red" stroke-width="0.1" />
<path d="M205.90049211380472,-8.0 L206.59950788619528,-42.0" stroke="black" stroke-width="0.1" />
<path d="M207.56165631846793,-26.5 L208.32208424623846,-45.0" stroke="red" stroke-width="0.1" />
<path d="M207.43834368153213,-23.5 L206.6779157537616,-5.0" stroke="red" stroke-width="0.1" />
<path d="M207.7024557154735,-8.0 L209.79754428452657,-42.0" stroke="black" stroke-width="0.1" />
<path d="M210.12313884704128,-26.5 L211.6418512938837,-45.0" stroke="red" stroke-width="0.1" />
<path d="M209.87686115295872,-23.5 L208.3581487061163,-5.0" stroke="red" stroke-width="0.1" />
<path d="M209.5074008569204,-8.0 L212.9925991430796,-42.0" stroke="black" stroke-width="0.1" />
<path d="M212.68426615708432,-26.5 L214.95688209445748,-45.0" stroke="red" stroke-width="0.1" />
<path d="M212.31573384291568,-23.5 L210.04311790554252,-5.0" stroke="red" stroke-width="0.1" />
<path d="M211.31745889660783,-8.0 L216.18254110339217,-42.0" stroke="black" stroke-width="0.1" />
<path d="M215.24484173265634,-26.5 L218.264556435418,-45.0" stroke="red" stroke-width="0.1" />
<path d="M214.75515826734366,-23.5 L211.735443564582,-5.0" stroke="red" stroke-width="0.1" />
<path d="M213.134972840668,-8.0 L219.365027159332,-42.0" stroke="black" stroke-width="0.1" />
<path d="M217.80464692669779,-26.5 L221.56195902263732,-45.0" stroke="red" stroke-width="0.1" />
<path d="M217.19535307330221,-23.5 L213.43804097736268,-5.0" stroke="red" stroke-width="0.1" />
<path d="M214.96257381199337,-8.0 L222.5374261880067,-42.0" stroke="black" stroke-width="0.1" />
<path d="M220.36343458268433,-26.5 L224.8457944357913,-45.0" stroke="red" stroke-width="0.1" />
<path d="M219.63656541731567,-23.5 L215.1542055642087,-5.0" stroke="red" stroke-width="0.1" />
<path d="M216.80324824318618,-8.0 L225.69675175681388,-42.0" stroke="black" stroke-width="0.1" />
<path d="M222.9209236447284,-26.5 L228.11231526304533,-45.0" stroke="red" stroke-width="0.1" />
<path d="M222.0790763552716,-23.5 L216.88768473695467,-5.0" stroke="red" stroke-width="0.1" />
<path d="M218.66039174262426,-8.0 L228.83960825737574,-42.0" stroke="black" stroke-width="0.1" />
<path d="M225.4767951482304,-26.5 L231.35726864307225,-45.0" stroke="red" stroke-width="0.1" />
<path d="M224.52320485176955,-23.5 L218.6427313569277,-5.0" stroke="red" stroke-width="0.1" />
<path d="M220.53784481448722,-8.0 L231.96215518551278,-42.0" stroke="black" stroke-width="0.1" />
<path d="M228.0306900457645,-26.5 L234.57586727685992,-45.0" stroke="red" stroke-width="0.1" />
<path d="M226.9693099542355,-23.5 L220.42413272314008,-5.0" stroke="red" stroke-width="0.1" />
<path d="M222.43990501365232,-8.0 L235.06009498634774,-42.0" stroke="black" stroke-width="0.1" />
<path d="M230.58220936126747,-26.5 L237.76279148356613,-45.0" stroke="red" stroke-width="0.1" />
<path d="M229.41779063873258,-23.5 L222.23720851643392,-5.0" stroke="red" stroke-width="0.1" />
<path d="M224.37130990613554,-8.0 L238.12869009386446,-42.0" stroke="black" stroke-width="0.1" />
<path d="M233.13091715880216,-26.5 L240.91222878402874,-45.0" stroke="red" stroke-width="0.1" />
<path d="M231.86908284119784,-23.5 L224.08777121597126,-5.0" stroke="red" stroke-width="0.1" />
<path d="M226.33718563280564,-8.0 L241.1628143671943,-42.0" stroke="black" stroke-width="0.1" />
<path d="M235.67634673832026,-26.5 L244.0179565109363,-45.0" stroke="red" stroke-width="0.1" />
<path d="M234.3236532616798,-23.5 L225.98204348906376,-5.0" stroke="red" stroke-width="0.1" />
<path d="M228.34295717411072,-8.0 L244.15704282588928,-42.0" stroke="black" stroke-width="0.1" />
<path d="M238.21801031155198,-26.5 L247.07347082069253,-45.0" stroke="red" stroke-width="0.1" />
<path d="M236.78198968844808,-23.5 L227.92652917930752,-5.0" stroke="red" stroke-width="0.1" />
<path d="M230.39421875081405,-8.0 L247.105781249186,-42.0" stroke="black" stroke-width="0.1" />
<path d="M240.75541215747631,-26.5 L250.07216209968428,-45.0" stroke="red" stroke-width="0.1" />
<path d="M239.24458784252369,-23.5 L229.92783790031572,-5.0" stroke="red" stroke-width="0.1" />
<path d="M232.4965661888384,-8.0 L250.0034338111616,-42.0" stroke="black" stroke-width="0.1" />
<path d="M243.28806491605252,-26.5 L253.00753221403332,-45.0" stroke="red" stroke-width="0.1" />
<path d="M241.71193508394754,-23.5 L231.99246778596674,-5.0" stroke="red" stroke-width="0.1" />
<path d="M234.65539732570608,-8.0 L252.84460267429387,-42.0" stroke="black" stroke-width="0.1" />
<path d="M245.81550827996935,-26.5 L255.87344373292476,-45.0" stroke="red" stroke-width="0.1" />
<path d="M244.18449172003065,-23.5 L234.12655626707524,-5.0" stroke="red" stroke-width="0.1" />
<path d="M236.87569118029637,-8.0 L255.62430881970363,-42.0" stroke="black" stroke-width="0.1" />
<path d="M248.337328939269,-26.5 L258.6643858569198,-45.0" stroke="red" stroke-width="0.1" />
<path d="M246.66267106073104,-23.5 L236.33561414308028,-5.0" stroke="red" stroke-width="0.1" />
<path d="M239.1617809390391,-8.0 L258.33821906096097,-42.0" stroke="black" stroke-width="0.1" />
<path d="M250.85318029337807,-26.5 L261.37573724504097,-45.0" stroke="red" stroke-width="0.1" />
<path d="M249.14681970662193,-23.5 L238.624262754959,-5.0" stroke="red" stroke-width="0.1" />
<path d="M241.51713897391204,-8.0 L260.98286102608796,-42.0" stroke="black" stroke-width="0.1" />
<path d="M253.36280024590923,-26.5 L264.0040032787892,-45.0" stroke="red" stroke-width="0.1" />
<path d="M251.63719975409083,-23.5 L240.99599672121087,-5.0" stroke="red" stroke-width="0.1" />
<path d="M243.9441932743433,-8.0 L263.5558067256567,-42.0" stroke="black" stroke-width="0.1" />
<path d="M255.86602540378445,-26.5 L266.5470053837925,-45.0" stroke="red" stroke-width="0.1" />
<path d="M254.13397459621555,-23.5 L243.4529946162075,-5.0" stroke="red" stroke-width="0.1" />
<path d="M246.44419327434332,-8.0 L266.05580672565674,-42.0" stroke="black" stroke-width="0.1" />
<path d="M258.3628002459092,-26.5 L269.0040032787892,-45.0" stroke="red" stroke-width="0.1" />
<path d="M256.63719975409083,-23.5 L245.99599672121087,-5.0" stroke="red" stroke-width="0.1" />
<path d="M249.01713897391204,-8.0 L268.48286102608796,-42.0" stroke="black" stroke-width="0.1" />
<path d="M260.85318029337805,-26.5 L271.375737245041,-45.0" stroke="red" stroke-width="0.1" />
<path d="M259.14681970662195,-23.5 L248.624262754959,-5.0" stroke="red" stroke-width="0.1" />
<path d="M251.66178093903906,-8.0 L270.8382190609609,-42.0" stroke="black" stroke-width="0.1" />
<path d="M263.3373289392689,-26.5 L273.6643858569197,-45.0" stroke="red" stroke-width="0.1" />
<path d="M261.662671060731,-23.5 L251.3356141430802,-5.0" stroke="red" stroke-width="0.1" />
<path d="M254.37569118029637,-8.0 L273.12430881970363,-42.0" stroke="black" stroke-width="0.1" />
<path d="M265.8155082799694,-26.5 L275.8734437329248,-45.0" stroke="red" stroke-width="0.1" />
<path d="M264.1844917200306,-23.5 L254.12655626707524,-5.0" stroke="red" stroke-width="0.1" />
<path d="M257.1553973257061,-8.0 L275.3446026742939,-42.0" stroke="black" stroke-width="0.1" />
<path d="M268.2880649160525,-26.5 L278.0075322140333,-45.0" stroke="red" stroke-width="0.1" />
<path d="M266.7119350839475,-23.5 L256.9924677859667,-5.0" stroke="red" stroke-width="0.1" />
<path d="M259.9965661888384,-8.0 L277.50343381116164,-42.0" stroke="black" stroke-width="0.1" />
<path d="M270.75541215747637,-26.5 L280.0721620996843,-45.0" stroke="red" stroke-width="0.1" />
<path d="M269.24458784252374,-23.5 L259.9278379003158,-5.0" stroke="red" stroke-width="0.1" />
<path d="M262.894218750814,-8.0 L279.605781249186,-42.0" stroke="black" stroke-width="0.1" />
<path d="M273.21801031155195,-26.5 L282.07347082069253,-45.0" stroke="red" stroke-width="0.1" />
<path d="M271.78198968844805,-23.5 L262.92652917930747,-5.0" stroke="red" stroke-width="0.1" />
<path d="M265.8429571741107,-8.0 L281.6570428258893,-42.0" stroke="black" stroke-width="0.1" />
<path d="M275.6763467383202,-26.5 L284.01795651093624,-45.0" stroke="red" stroke-width="0.1" />
<path d="M274.3236532616798,-23.5 L265.98204348906376,-5.0" stroke="red" stroke-width="0.1" />
<path d="M268.8371856328057,-8.0 L283.6628143671943,-42.0" stroke="black" stroke-width="0.1" />
<path d="M278.13091715880216,-26.5 L285.91222878402874,-45.0" stroke="red" stroke-width="0.1" />
<path d="M276.86908284119784,-23.5 L269.08777121597126,-5.0" stroke="red" stroke-width="0.1" />
<path d="M271.8713099061356,-8.0 L285.6286900938645,-42.0" stroke="black" stroke-width="0.1" />
<path d="M280.5822093612675,-26.5 L287.7627914835661,-45.0" stroke="red" stroke-width="0.1" />
<path d="M279.4177906387325,-23.5 L272.2372085164339,-5.0" stroke="red" stroke-width="0.1" />
<path d="M274.93990501365226,-8.0 L287.5600949863476,-42.0" stroke="black" stroke-width="0.1" />
<path d="M283.0306900457645,-26.5 L289.5758672768599,-45.0" stroke="red" stroke-width="0.1" />
<path d="M281.9693099542355,-23.5 L275.4241327231401,-5.0" stroke="red" stroke-width="0.1" />
<path d="M278.0378448144872,-8.0 L289.4621551855128,-42.0" stroke="black" stroke-width="0.1" />
<path d="M285.4767951482304,-26.5 L291.3572686430723,-45.0" stroke="red" stroke-width="0.1" />
<path d="M284.5232048517696,-23.5 L278.6427313569277,-5.0" stroke="red" stroke-width="0.1" />
<path d="M281.16039174262426,-8.0 L291.33960825737574,-42.0" stroke="black" stroke-width="0.1" />
<path d="M287.9209236447285,-26.5 L293.1123152630454,-45.0" stroke="red" stroke-width="0.1" />
<path d="M287.07907635527164,-23.5 L281.8876847369547,-5.0" stroke="red" stroke-width="0.1" />
<path d="M284.30324824318615,-8.0 L293.19675175681385,-42.0" stroke="black" stroke-width="0.1" />
<path d="M290.36343458268436,-26.5 L294.8457944357913,-45.0" stroke="red" stroke-width="0.1" />
<path d="M289.63656541731564,-23.5 L285.1542055642087,-5.0" stroke="red" stroke-width="0.1" />
<path d="M287.4625738119934,-8.0 L295.0374261880067,-42.0" stroke="black" stroke-width="0.1" />
<path d="M292.8046469266978,-26.5 L296.5619590226373,-45.0" stroke="red" stroke-width="0.1" />
<path d="M292.1953530733022,-23.5 L288.4380409773627,-5.0" stroke="red" stroke-width="0.1" />
<path d="M290.63497284066796,-8.0 L296.86502715933193,-42.0" stroke="black" stroke-width="0.1" />
<path d="M295.24484173265637,-26.5 L298.264556435418,-45.0" stroke="red" stroke-width="0.1" />
<path d="M294.75515826734363,-23.5 L291.735443564582,-5.0" stroke="red" stroke-width="0.1" />
<path d="M293.81745889660783,-8.0 L298.68254110339217,-42.0" stroke="black" stroke-width="0.1" />
<path d="M297.6842661570843,-26.5 L299.95688209445746,-45.0" stroke="red" stroke-width="0.1" />
<path d="M297.3157338429157,-23.5 L295.04311790554254,-5.0" stroke="red" stroke-width="0.1" />
<path d="M297.0074008569204,-8.0 L300.4925991430796,-42.0" stroke="black" stroke-width="0.1" />
<path d="M300.12313884704133,-26.5 L301.64185129388375,-45.0" stroke="red" stroke-width="0.1" />
<path d="M299.8768611529588,-23.5 L298.35814870611637,-5.0" stroke="red" stroke-width="0.1" />
<path d="M300.20245571547343,-8.0 L302.29754428452657,-42.0" stroke="black" stroke-width="0.1" />
<path d="M302.5616563184679,-26.5 L303.32208424623843,-45.0" stroke="red" stroke-width="0.1" />
<path d="M302.4383436815321,-23.5 L301.67791575376157,-5.0" stroke="red" stroke-width="0.1" />
<path d="M303.4004921138047,-8.0 L304.0995078861953,-42.0" stroke="black" stroke-width="0.1" />
</svg>